<svg aria-roledescription="flowchart-v2" role="graphics-document document" viewBox="-8 -8 1518.109375 394.75" style="max-width: 1518.11px; background-color: white;" xmlns:xlink="http://www.w3.org/1999/xlink" xmlns="http://www.w3.org/2000/svg" width="100%" id="my-svg"><style>#my-svg{font-family:"trebuchet ms",verdana,arial,sans-serif;font-size:16px;fill:#333;}#my-svg .error-icon{fill:#552222;}#my-svg .error-text{fill:#552222;stroke:#552222;}#my-svg .edge-thickness-normal{stroke-width:2px;}#my-svg .edge-thickness-thick{stroke-width:3.5px;}#my-svg .edge-pattern-solid{stroke-dasharray:0;}#my-svg .edge-pattern-dashed{stroke-dasharray:3;}#my-svg .edge-pattern-dotted{stroke-dasharray:2;}#my-svg .marker{fill:#333333;stroke:#333333;}#my-svg .marker.cross{stroke:#333333;}#my-svg svg{font-family:"trebuchet ms",verdana,arial,sans-serif;font-size:16px;}#my-svg .label{font-family:"trebuchet ms",verdana,arial,sans-serif;color:#333;}#my-svg .cluster-label text{fill:#333;}#my-svg .cluster-label span,#my-svg p{color:#333;}#my-svg .label text,#my-svg span,#my-svg p{fill:#333;color:#333;}#my-svg .node rect,#my-svg .node circle,#my-svg .node ellipse,#my-svg .node polygon,#my-svg .node path{fill:#ECECFF;stroke:#9370DB;stroke-width:1px;}#my-svg .flowchart-label text{text-anchor:middle;}#my-svg .node .katex path{fill:#000;stroke:#000;stroke-width:1px;}#my-svg .node .label{text-align:center;}#my-svg .node.clickable{cursor:pointer;}#my-svg .arrowheadPath{fill:#333333;}#my-svg .edgePath .path{stroke:#333333;stroke-width:2.0px;}#my-svg .flowchart-link{stroke:#333333;fill:none;}#my-svg .edgeLabel{background-color:#e8e8e8;text-align:center;}#my-svg .edgeLabel rect{opacity:0.5;background-color:#e8e8e8;fill:#e8e8e8;}#my-svg .labelBkg{background-color:rgba(232, 232, 232, 0.5);}#my-svg .cluster rect{fill:#ffffde;stroke:#aaaa33;stroke-width:1px;}#my-svg .cluster text{fill:#333;}#my-svg .cluster span,#my-svg p{color:#333;}#my-svg div.mermaidTooltip{position:absolute;text-align:center;max-width:200px;padding:2px;font-family:"trebuchet ms",verdana,arial,sans-serif;font-size:12px;background:hsl(80, 100%, 96.2745098039%);border:1px solid #aaaa33;border-radius:2px;pointer-events:none;z-index:100;}#my-svg .flowchartTitleText{text-anchor:middle;font-size:18px;fill:#333;}#my-svg :root{--mermaid-font-family:"trebuchet ms",verdana,arial,sans-serif;}</style><g><marker orient="auto" markerHeight="12" markerWidth="12" markerUnits="userSpaceOnUse" refY="5" refX="6" viewBox="0 0 10 10" class="marker flowchart" id="my-svg_flowchart-pointEnd"><path style="stroke-width: 1; stroke-dasharray: 1, 0;" class="arrowMarkerPath" d="M 0 0 L 10 5 L 0 10 z"/></marker><marker orient="auto" markerHeight="12" markerWidth="12" markerUnits="userSpaceOnUse" refY="5" refX="4.5" viewBox="0 0 10 10" class="marker flowchart" id="my-svg_flowchart-pointStart"><path style="stroke-width: 1; stroke-dasharray: 1, 0;" class="arrowMarkerPath" d="M 0 5 L 10 10 L 10 0 z"/></marker><marker orient="auto" markerHeight="11" markerWidth="11" markerUnits="userSpaceOnUse" refY="5" refX="11" viewBox="0 0 10 10" class="marker flowchart" id="my-svg_flowchart-circleEnd"><circle style="stroke-width: 1; stroke-dasharray: 1, 0;" class="arrowMarkerPath" r="5" cy="5" cx="5"/></marker><marker orient="auto" markerHeight="11" markerWidth="11" markerUnits="userSpaceOnUse" refY="5" refX="-1" viewBox="0 0 10 10" class="marker flowchart" id="my-svg_flowchart-circleStart"><circle style="stroke-width: 1; stroke-dasharray: 1, 0;" class="arrowMarkerPath" r="5" cy="5" cx="5"/></marker><marker orient="auto" markerHeight="11" markerWidth="11" markerUnits="userSpaceOnUse" refY="5.2" refX="12" viewBox="0 0 11 11" class="marker cross flowchart" id="my-svg_flowchart-crossEnd"><path style="stroke-width: 2; stroke-dasharray: 1, 0;" class="arrowMarkerPath" d="M 1,1 l 9,9 M 10,1 l -9,9"/></marker><marker orient="auto" markerHeight="11" markerWidth="11" markerUnits="userSpaceOnUse" refY="5.2" refX="-1" viewBox="0 0 11 11" class="marker cross flowchart" id="my-svg_flowchart-crossStart"><path style="stroke-width: 2; stroke-dasharray: 1, 0;" class="arrowMarkerPath" d="M 1,1 l 9,9 M 10,1 l -9,9"/></marker><g class="root"><g class="clusters"><g id="Server" class="cluster default flowchart-label"><rect height="148" width="824.8828125" y="171.75" x="343.9140625" ry="0" rx="0" style=""/><g transform="translate(756.35546875, 171.75)" class="cluster-label"><text style=""><tspan class="row" x="0" dy="1em" xml:space="preserve">Server</tspan></text></g></g><g id="Client" class="cluster default flowchart-label"><rect height="151.75" width="1502.109375" y="0" x="0" ry="0" rx="0" style=""/><g transform="translate(751.0546875, 0)" class="cluster-label"><text style=""><tspan class="row" x="0" dy="1em" xml:space="preserve">Client</tspan></text></g></g></g><g class="edgePaths"><path marker-end="url(#my-svg_flowchart-pointEnd)" style="fill:none;" class="edge-thickness-normal edge-pattern-solid flowchart-link LS-A1 LE-A2" id="L-A1-A2-0" d="M83.322,65.5L113.938,45.75L176.481,45.75"/><path marker-end="url(#my-svg_flowchart-pointEnd)" style="fill:none;" class="edge-thickness-normal edge-pattern-solid flowchart-link LS-A2 LE-A3" id="L-A2-A3-0" d="M256.07,45.75L323.914,45.75L343.914,45.75L361.259,45.75"/><path marker-end="url(#my-svg_flowchart-pointEnd)" style="fill:none;" class="edge-thickness-normal edge-pattern-solid flowchart-link LS-A3 LE-A4" id="L-A3-A4-0" d="M452.48,41.707L566.258,31L723.371,31L858.469,31L991.871,31L1056.156,31L1112.477,31L1168.797,31L1215.027,31L1256.018,37.215"/><path marker-end="url(#my-svg_flowchart-pointEnd)" style="fill:none;" class="edge-thickness-normal edge-pattern-solid flowchart-link LS-A9 LE-A10" id="L-A9-A10-0" d="M1359.969,109.75L1383.352,109.75L1398.052,109.75"/><path marker-end="url(#my-svg_flowchart-pointEnd)" style="fill:none;" class="edge-thickness-normal edge-pattern-solid flowchart-link LS-B1 LE-B2" id="L-B1-B2-0" d="M455.125,213.75L566.258,213.75L672.091,213.75"/><path marker-end="url(#my-svg_flowchart-pointEnd)" style="fill:none;" class="edge-thickness-normal edge-pattern-solid flowchart-link LS-B2 LE-B3" id="L-B2-B3-0" d="M769.352,213.75L858.469,213.75L947.79,213.75"/><path marker-end="url(#my-svg_flowchart-pointEnd)" style="fill:none;" class="edge-thickness-normal edge-pattern-solid flowchart-link LS-B3 LE-B4" id="L-B3-B4-0" d="M1030.652,213.75L1056.156,213.75L1072.204,213.75"/><path marker-end="url(#my-svg_flowchart-pointEnd)" style="fill:none;" class="edge-thickness-normal edge-pattern-solid flowchart-link LS-B6 LE-B7" id="L-B6-B7-0" d="M752.352,273.031L858.469,255.75L942.357,269.584"/><path marker-end="url(#my-svg_flowchart-pointEnd)" style="fill:none;" class="edge-thickness-normal edge-pattern-solid flowchart-link LS-B7 LE-B8" id="L-B7-B8-0" d="M1036.156,270.861L1056.156,267.75L1070.938,270.375"/><path marker-end="url(#my-svg_flowchart-pointEnd)" style="fill:none;" class="edge-thickness-normal edge-pattern-solid flowchart-link LS-C1 LE-C2" id="L-C1-C2-0" d="M276.387,361.75L323.914,361.75L343.914,361.75L373.134,361.75"/><path marker-end="url(#my-svg_flowchart-pointEnd)" style="fill:none;" class="edge-thickness-normal edge-pattern-solid flowchart-link LS-C2 LE-B6" id="L-C2-B6-0" d="M440.605,345.09L566.258,277.75L689.091,277.75"/><path marker-end="url(#my-svg_flowchart-pointEnd)" style="fill:none;" class="edge-thickness-normal edge-pattern-solid flowchart-link LS-A1 LE-B1" id="L-A1-B1-0" d="M92.509,99.5L113.938,109.75L218.926,109.75L323.914,109.75L343.914,109.75L395.968,192.267"/><path marker-end="url(#my-svg_flowchart-pointEnd)" style="fill:none;" class="edge-thickness-normal edge-pattern-solid flowchart-link LS-A3 LE-B6" id="L-A3-B6-0" d="M452.48,60.277L566.258,98.75L704.953,256.767"/><path marker-end="url(#my-svg_flowchart-pointEnd)" style="fill:none;" class="edge-thickness-normal edge-pattern-solid flowchart-link LS-B4 LE-A4" id="L-B4-A4-0" d="M1147.449,213.75L1168.797,213.75L1215.027,63L1256.039,55.727"/><path marker-end="url(#my-svg_flowchart-pointEnd)" style="fill:none;" class="edge-thickness-normal edge-pattern-solid flowchart-link LS-B6 LE-B7" id="L-B6-B7-1" d="M752.352,280.11L858.469,288.75L942.304,281.837"/><path marker-end="url(#my-svg_flowchart-pointEnd)" style="fill:none;" class="edge-thickness-normal edge-pattern-solid flowchart-link LS-B7 LE-B8" id="L-B7-B8-1" d="M1036.156,285.328L1056.156,288.75L1070.955,285.86"/><path marker-end="url(#my-svg_flowchart-pointEnd)" style="fill:none;" class="edge-thickness-normal edge-pattern-solid flowchart-link LS-B8 LE-A9" id="L-B8-A9-0" d="M1148.797,277.75L1168.797,277.75L1215.027,109.75L1259.341,109.75"/><path marker-end="url(#my-svg_flowchart-pointEnd)" style="fill:none;stroke-width:2px;stroke-dasharray:3;" class="edge-thickness-normal edge-pattern-dotted flowchart-link LS-A3 LE-B8" id="L-A3-B8-0" d="M452.48,49.793L566.258,60.5L723.371,60.5L858.469,60.5L991.871,60.5L1056.156,60.5L1106.739,255.62"/></g><g class="edgeLabels"><g class="edgeLabel"><g transform="translate(0, 0)" class="label"><rect height="0" width="0" ry="0" rx="0"/><text style=""><tspan class="row" x="0" dy="1em" xml:space="preserve"/></text></g></g><g class="edgeLabel"><g transform="translate(0, 0)" class="label"><rect height="0" width="0" ry="0" rx="0"/><text style=""><tspan class="row" x="0" dy="1em" xml:space="preserve"/></text></g></g><g class="edgeLabel"><g transform="translate(0, 0)" class="label"><rect height="0" width="0" ry="0" rx="0"/><text style=""><tspan class="row" x="0" dy="1em" xml:space="preserve"/></text></g></g><g class="edgeLabel"><g transform="translate(0, 0)" class="label"><rect height="0" width="0" ry="0" rx="0"/><text style=""><tspan class="row" x="0" dy="1em" xml:space="preserve"/></text></g></g><g class="edgeLabel"><g transform="translate(0, 0)" class="label"><rect height="0" width="0" ry="0" rx="0"/><text style=""><tspan class="row" x="0" dy="1em" xml:space="preserve"/></text></g></g><g class="edgeLabel"><g transform="translate(0, 0)" class="label"><rect height="0" width="0" ry="0" rx="0"/><text style=""><tspan class="row" x="0" dy="1em" xml:space="preserve"/></text></g></g><g class="edgeLabel"><g transform="translate(0, 0)" class="label"><rect height="0" width="0" ry="0" rx="0"/><text style=""><tspan class="row" x="0" dy="1em" xml:space="preserve"/></text></g></g><g class="edgeLabel"><g transform="translate(0, 0)" class="label"><rect height="0" width="0" ry="0" rx="0"/><text style=""><tspan class="row" x="0" dy="1em" xml:space="preserve"/></text></g></g><g class="edgeLabel"><g transform="translate(0, 0)" class="label"><rect height="0" width="0" ry="0" rx="0"/><text style=""><tspan class="row" x="0" dy="1em" xml:space="preserve"/></text></g></g><g class="edgeLabel"><g transform="translate(0, 0)" class="label"><rect height="0" width="0" ry="0" rx="0"/><text style=""><tspan class="row" x="0" dy="1em" xml:space="preserve"/></text></g></g><g class="edgeLabel"><g transform="translate(0, 0)" class="label"><rect height="0" width="0" ry="0" rx="0"/><text style=""><tspan class="row" x="0" dy="1em" xml:space="preserve"/></text></g></g><g transform="translate(218.92578125, 109.75)" class="edgeLabel"><g transform="translate(-84.98828125, -9.5)" class="label"><rect height="19.36383819580078" width="172.53953552246094" ry="0" rx="0"/><text style=""><tspan class="row" x="0" dy="1em" xml:space="preserve">calibration and runtime</tspan></text></g></g><g transform="translate(566.2578125, 98.75)" class="edgeLabel"><g transform="translate(-91.1328125, -9.5)" class="label"><rect height="19.36383819580078" width="184.88726806640625" ry="0" rx="0"/><text style=""><tspan class="row" x="0" dy="1em" xml:space="preserve">focus 0..100 every 750ms</tspan></text></g></g><g transform="translate(1215.02734375, 63)" class="edgeLabel"><g transform="translate(-26.23046875, -9.5)" class="label"><rect height="19.36383819580078" width="54.064659118652344" ry="0" rx="0"/><text style=""><tspan class="row" x="0" dy="1em" xml:space="preserve">focus %</tspan></text></g></g><g class="edgeLabel"><g transform="translate(0, 0)" class="label"><rect height="0" width="0" ry="0" rx="0"/><text style=""><tspan class="row" x="0" dy="1em" xml:space="preserve"/></text></g></g><g class="edgeLabel"><g transform="translate(0, 0)" class="label"><rect height="0" width="0" ry="0" rx="0"/><text style=""><tspan class="row" x="0" dy="1em" xml:space="preserve"/></text></g></g><g class="edgeLabel"><g transform="translate(0, 0)" class="label"><rect height="0" width="0" ry="0" rx="0"/><text style=""><tspan class="row" x="0" dy="1em" xml:space="preserve"/></text></g></g><g transform="translate(858.46875, 60.5)" class="edgeLabel"><g transform="translate(-69.1171875, -9.5)" class="label"><rect height="19.36383819580078" width="140.8083038330078" ry="0" rx="0"/><text style=""><tspan class="row" x="0" dy="1em" xml:space="preserve">skip/volume/pause</tspan></text></g></g></g><g class="nodes"><g transform="translate(723.37109375, 213.75)" data-id="B2" data-node="true" id="flowchart-B2-9" class="node default default flowchart-label"><rect height="34" width="91.9609375" y="-17" x="-45.98046875" ry="0" rx="0" style="" class="basic label-container"/><g transform="translate(0, -9.5)" style="" class="label"><rect/><text style=""><tspan class="row" x="0" dy="1em" xml:space="preserve">Preprocess</tspan></text></g></g><g transform="translate(409.51953125, 213.75)" data-id="B1" data-node="true" id="flowchart-B1-8" class="node default default flowchart-label"><rect height="34" width="91.2109375" y="-17" x="-45.60546875" ry="0" rx="0" style="" class="basic label-container"/><g transform="translate(0, -9.5)" style="" class="label"><rect/><text style=""><tspan class="row" x="0" dy="1em" xml:space="preserve">EEG Ingest</tspan></text></g></g><g transform="translate(991.87109375, 213.75)" data-id="B3" data-node="true" id="flowchart-B3-11" class="node default default flowchart-label"><rect height="34" width="77.5625" y="-17" x="-38.78125" ry="0" rx="0" style="" class="basic label-container"/><g transform="translate(0, -9.5)" style="" class="label"><rect/><text style=""><tspan class="row" x="0" dy="1em" xml:space="preserve">Features</tspan></text></g></g><g transform="translate(1112.4765625, 213.75)" data-id="B4" data-node="true" id="flowchart-B4-13" class="node default default flowchart-label"><rect height="34" width="69.9453125" y="-17" x="-34.97265625" ry="0" rx="0" style="" class="basic label-container"/><g transform="translate(0, -9.5)" style="" class="label"><rect/><text style=""><tspan class="row" x="0" dy="1em" xml:space="preserve">Focus %</tspan></text></g></g><g transform="translate(991.87109375, 277.75)" data-id="B7" data-node="true" id="flowchart-B7-15" class="node default default flowchart-label"><rect height="34" width="88.5703125" y="-17" x="-44.28515625" ry="0" rx="0" style="" class="basic label-container"/><g transform="translate(0, -9.5)" style="" class="label"><rect/><text style=""><tspan class="row" x="0" dy="1em" xml:space="preserve">Generator</tspan></text></g></g><g transform="translate(723.37109375, 277.75)" data-id="B6" data-node="true" id="flowchart-B6-14" class="node default default flowchart-label"><rect height="34" width="57.9609375" y="-17" x="-28.98046875" ry="0" rx="0" style="" class="basic label-container"/><g transform="translate(0, -9.5)" style="" class="label"><rect/><text style=""><tspan class="row" x="0" dy="1em" xml:space="preserve">Policy</tspan></text></g></g><g transform="translate(1112.4765625, 277.75)" data-id="B8" data-node="true" id="flowchart-B8-17" class="node default default flowchart-label"><rect height="34" width="72.640625" y="-17" x="-36.3203125" ry="0" rx="0" style="" class="basic label-container"/><g transform="translate(0, -9.5)" style="" class="label"><rect/><text style=""><tspan class="row" x="0" dy="1em" xml:space="preserve">WS PCM</tspan></text></g></g><g transform="translate(218.92578125, 45.75)" data-id="A2" data-node="true" id="flowchart-A2-1" class="node default default flowchart-label"><rect height="34" width="74.2890625" y="-17" x="-37.14453125" ry="0" rx="0" style="" class="basic label-container"/><g transform="translate(0, -9.5)" style="" class="label"><rect/><text style=""><tspan class="row" x="0" dy="1em" xml:space="preserve">Connect</tspan></text></g></g><g transform="translate(56.96875, 82.5)" data-id="A1" data-node="true" id="flowchart-A1-0" class="node default default flowchart-label"><rect height="34" width="73.9375" y="-17" x="-36.96875" ry="0" rx="0" style="" class="basic label-container"/><g transform="translate(0, -9.5)" style="" class="label"><rect/><text style=""><tspan class="row" x="0" dy="1em" xml:space="preserve">EEG BLE</tspan></text></g></g><g transform="translate(409.51953125, 45.75)" data-id="A3" data-node="true" id="flowchart-A3-3" class="node default default flowchart-label"><rect height="34" width="85.921875" y="-17" x="-42.9609375" ry="0" rx="0" style="" class="basic label-container"/><g transform="translate(0, -9.5)" style="" class="label"><rect/><text style=""><tspan class="row" x="0" dy="1em" xml:space="preserve">Session UI</tspan></text></g></g><g transform="translate(1312.3046875, 45.75)" data-id="A4" data-node="true" id="flowchart-A4-5" class="node default default flowchart-label"><rect height="34" width="102.09375" y="-17" x="-51.046875" ry="0" rx="0" style="" class="basic label-container"/><g transform="translate(0, -9.5)" style="" class="label"><rect/><text style=""><tspan class="row" x="0" dy="1em" xml:space="preserve">Focus Meter</tspan></text></g></g><g transform="translate(1442.73046875, 109.75)" data-id="A10" data-node="true" id="flowchart-A10-7" class="node default default flowchart-label"><rect height="34" width="78.7578125" y="-17" x="-39.37890625" ry="0" rx="0" style="" class="basic label-container"/><g transform="translate(0, -9.5)" style="" class="label"><rect/><text style=""><tspan class="row" x="0" dy="1em" xml:space="preserve">Speakers</tspan></text></g></g><g transform="translate(1312.3046875, 109.75)" data-id="A9" data-node="true" id="flowchart-A9-6" class="node default default flowchart-label"><rect height="34" width="95.328125" y="-17" x="-47.6640625" ry="0" rx="0" style="" class="basic label-container"/><g transform="translate(0, -9.5)" style="" class="label"><rect/><text style=""><tspan class="row" x="0" dy="1em" xml:space="preserve">PCM Player</tspan></text></g></g><g transform="translate(218.92578125, 361.75)" data-id="C1" data-node="true" id="flowchart-C1-18" class="node default default flowchart-label"><rect height="34" width="114.921875" y="-17" x="-57.4609375" ry="0" rx="0" style="" class="basic label-container"/><g transform="translate(0, -9.5)" style="" class="label"><rect/><text style=""><tspan class="row" x="0" dy="1em" xml:space="preserve">Questionnaire</tspan></text></g></g><g transform="translate(409.51953125, 361.75)" data-id="C2" data-node="true" id="flowchart-C2-19" class="node default default flowchart-label"><rect height="34" width="62.171875" y="-17" x="-31.0859375" ry="0" rx="0" style="" class="basic label-container"/><g transform="translate(0, -9.5)" style="" class="label"><rect/><text style=""><tspan class="row" x="0" dy="1em" xml:space="preserve">Profile</tspan></text></g></g></g></g></g></svg>